#!OML:ASF F:\VICON\USERDATA\INSTALL\rory3\rory3.ASF
:FULLY-SPECIFIED
:DEGREES
16
root 1.31301 17.8586 -27.2491 -3.44039 2.06308 2.31892
lowerback 12.019 -0.850325 -3.78865
upperback 1.01644 -1.57714 0.965926
thorax -5.5447 -0.674944 3.41622
lowerneck -16.394 -2.90674 -1.76096
upperneck 24.3161 -3.45761 -0.614232
head 10.5303 -1.82531 -0.399937
rclavicle 4.4975e-015 6.36111e-015
rhumerus -31.3165 -22.7398 -75.8603
rradius 26.6178
rwrist 3.63948
rhand -17.5135 23.8169
rfingers 7.12502
rthumb 8.73988 -5.98213
lclavicle 4.4975e-015 6.36111e-015
lhumerus -25.4444 -4.97902 81.9665
lradius 27.6453
lwrist 5.932
lhand -28.6973 21.8876
lfingers 7.12502
lthumb -2.05936 51.8574
rfemur -29.7293 -2.9168 19.6477
rtibia 53.1052
rfoot -10.5944 -9.67393
rtoes 1.03451
lfemur -1.52952 0.0446226 -25.7876
ltibia 23.1382
lfoot -20.8416 -7.70097
ltoes -4.23648
17
root 1.31016 17.8455 -27.0852 -3.23073 2.31376 2.47824
lowerback 11.7585 -0.798579 -3.84136
upperback 1.3822 -1.50545 0.853232
thorax -5.02144 -0.658616 3.3014
lowerneck -17.9471 -3.09646 -1.52632
upperneck 24.5808 -3.7821 -0.541327
head 10.9261 -1.93558 -0.490191
rclavicle 1.50331e-014 -4.37326e-015
rhumerus -30.9387 -23.8362 -75.8587
rradius 26.4208
rwrist 3.8554
rhand -17.5069 24.0057
rfingers 7.12502
rthumb 8.74621 -5.79313
lclavicle 1.50331e-014 -4.37326e-015
lhumerus -23.8875 -5.55383 81.7071
lradius 28.0221
lwrist 6.10589
lhand -29.1593 22.54
lfingers 7.12502
lthumb -2.50557 52.505
rfemur -30.0072 -2.64851 19.3242
rtibia 50.8215
rfoot -10.8004 -10.043
rtoes 2.49935
lfemur -0.943114 -0.0256834 -25.9763
ltibia 22.6822
lfoot -20.9184 -7.63331
ltoes -4.02479
18
root 1.30432 17.848 -26.9253 -3.04441 2.35819 2.53366
lowerback 11.6935 -1.21087 -4.46375
upperback 0.452426 -2.11751 1.38531
thorax -5.87378 -0.899334 4.33076
lowerneck -14.5458 -2.67305 -2.59687
upperneck 23.7737 -2.98623 -0.495944
head 9.99549 -1.67598 -0.119964
rclavicle 8.17502e-015 1.07344e-014
rhumerus -32.7896 -21.6152 -75.036
rradius 26.4035
rwrist 3.50014
rhand -16.9416 25.1971
rfingers 7.12502
rthumb 9.29169 -4.57816
lclavicle 8.17502e-015 1.07344e-014
lhumerus -25.7726 -4.03361 81.8165
lradius 28.7385
lwrist 5.7971
lhand -29.2414 20.6987
lfingers 7.12502
lthumb -2.58481 50.6627
rfemur -30.1081 -1.97672 19.039
rtibia 48.3927
rfoot -11.0606 -10.1252
rtoes 7.0143
lfemur -0.236817 0.017786 -26.0419
ltibia 22.0621
lfoot -20.7283 -7.57477
ltoes -3.18721
19
root 1.2986 17.8606 -26.7642 -2.90865 2.33394 2.52743
lowerback 11.6161 -1.16263 -4.37471
upperback 0.571055 -2.03939 1.33175
thorax -5.71774 -0.871125 4.20499
lowerneck -15.143 -2.71047 -2.36598
upperneck 23.776 -3.07465 -0.514128
head 10.1062 -1.69635 -0.185513
rclavicle -2.31087e-014 -2.78299e-015
rhumerus -32.7687 -22.564 -74.8393
rradius 26.0361
rwrist 3.67833
rhand -17.5595 24.1682
rfingers 7.12502
rthumb 8.69542 -5.63266
lclavicle -2.31087e-014 -2.78299e-015
lhumerus -24.939 -4.54678 81.5907
lradius 29.1932
lwrist 6.04593
lhand -29.2466 21.3392
lfingers 7.12502
lthumb -2.58987 51.3032
rfemur -30.2852 -1.3582 18.9179
rtibia 45.8084
rfoot -10.5002 -10.6972
rtoes 6.4423
lfemur 0.5711 0.129129 -26.0335
ltibia 21.261
lfoot -20.4578 -7.63039
ltoes -2.63189
20
root 1.29397 17.8663 -26.5972 -2.77844 2.30316 2.71827
lowerback 11.4756 -1.10103 -4.4368
upperback 0.666239 -1.96554 1.20219
thorax -5.54848 -0.841759 4.08385
lowerneck -15.5258 -2.83911 -2.23355
upperneck 23.7435 -3.28021 -0.510711
head 10.1668 -1.77736 -0.239351
rclavicle -3.75206e-015 -4.77083e-015
rhumerus -32.8279 -23.5332 -74.5778
rradius 25.57
rwrist 3.97811
rhand -17.5433 23.7705
rfingers 7.12502
rthumb 8.71104 -6.02978
lclavicle -3.75206e-015 -4.77083e-015
lhumerus -24.2222 -5.27374 81.3699
lradius 29.83
lwrist 6.56613
lhand -29.3134 23.4427
lfingers 7.12502
lthumb -2.65436 53.4059
rfemur -30.4961 -0.80999 18.5779
rtibia 43.0996
rfoot -9.36427 -11.3402
rtoes 4.27854
lfemur 1.4704 0.207157 -26.2718
ltibia 20.3719
lfoot -20.3002 -7.52689
ltoes -2.4134
21
root 1.29249 17.8794 -26.4286 -2.57154 2.27096 2.71301
lowerback 11.2408 -1.10101 -4.34656
upperback 0.592744 -1.94603 1.18579
thorax -5.50021 -0.834815 4.00558
lowerneck -15.4383 -2.85577 -2.26497
upperneck 23.732 -3.32527 -0.405468
head 10.1488 -1.78873 -0.201539
rclavicle 2.14687e-014 -1.03368e-014
rhumerus -33.2816 -23.9704 -74.2543
rradius 25.338
rwrist 4.27538
rhand -17.6658 23.6147
rfingers 7.12502
rthumb 8.59289 -6.19049
lclavicle 2.14687e-014 -1.03368e-014
lhumerus -23.7854 -5.45298 81.1648
lradius 30.2735
lwrist 6.72524
lhand -29.8296 24.6754
lfingers 7.12502
lthumb -3.15293 54.6318
rfemur -30.5867 0.187026 18.2413
rtibia 40.2786
rfoot -8.30495 -11.7035
rtoes 6.45949
lfemur 2.27518 0.0907265 -26.3541
ltibia 19.559
lfoot -19.9513 -7.27361
ltoes -1.08978
22
root 1.2875 17.8779 -26.2614 -2.36584 2.20519 2.69995
lowerback 11.1787 -1.24324 -4.50945
upperback 0.21172 -2.14811 1.39117
thorax -5.835 -0.909967 4.35338
lowerneck -14.5296 -2.61664 -2.56626
upperneck 23.6383 -2.93858 -0.406197
head 9.94407 -1.64045 -0.0860719
rclavicle -9.41742e-015 1.27222e-014
rhumerus -34.1313 -23.3933 -73.8125
rradius 25.1586
rwrist 4.38832
rhand -17.8861 23.4222
rfingers 7.12502
rthumb 8.38027 -6.39156
lclavicle -9.41742e-015 1.27222e-014
lhumerus -24.0958 -4.77958 81.0503
lradius 30.6309
lwrist 6.63039
lhand -31.2028 24.3906
lfingers 7.12502
lthumb -4.47892 54.3233
rfemur -30.6402 1.2984 17.886
rtibia 37.4304
rfoot -7.01563 -12.0657
rtoes 8.2812
lfemur 3.03229 -0.057777 -26.4363
ltibia 18.8317
lfoot -19.3976 -7.01552
ltoes 0.957744
23
root 1.28499 17.8572 -26.0963 -2.15782 2.13906 2.75069
lowerback 11.2641 -1.5192 -4.8342
upperback -0.332954 -2.55132 1.71471
thorax -6.39108 -1.06349 4.96404
lowerneck -13.1823 -2.32478 -3.12656
upperneck 23.3838 -2.4212 -0.4884
head 9.60073 -1.46222 0.0639964
rclavicle 2.55438e-014 -5.56597e-015
rhumerus -35.0595 -22.2672 -73.2693
rradius 24.8712
rwrist 4.61618
rhand -17.7847 23.4246
rfingers 7.12502
rthumb 8.47807 -6.38518
lclavicle 2.55438e-014 -5.56597e-015
lhumerus -25.0462 -3.84808 81.0104
lradius 31.3264
lwrist 6.64994
lhand -32.0239 23.9623
lfingers 7.12502
lthumb -5.27178 53.8767
rfemur -30.6872 2.22656 17.503
rtibia 34.5952
rfoot -5.54634 -12.3463
rtoes 7.25859
lfemur 3.69463 -0.250978 -26.6199
ltibia 18.2162
lfoot -18.8863 -6.62483
ltoes 2.83282
24
root 1.28181 17.85 -25.9272 -1.99991 2.02476 2.8173
lowerback 11.0901 -1.43095 -4.73867
upperback -0.226693 -2.41614 1.64033
thorax -6.20252 -1.01039 4.79803
lowerneck -13.8036 -2.38493 -2.93928
upperneck 23.3126 -2.51929 -0.514447
head 9.69084 -1.4924 0.00421374
rclavicle -2.0773e-014 1.59028e-015
rhumerus -35.1619 -22.9946 -72.9868
rradius 24.4465
rwrist 4.96277
rhand -17.7922 23.4309
rfingers 7.12502
rthumb 8.47087 -6.37922
lclavicle -2.0773e-014 1.59028e-015
lhumerus -24.4015 -4.30453 80.8638
lradius 31.803
lwrist 7.08002
lhand -31.9774 22.9905
lfingers 7.12502
lthumb -5.22694 52.9061
rfemur -30.5971 3.28478 17.0005
rtibia 31.8098
rfoot -4.45403 -12.3561
rtoes 7.34833
lfemur 4.41329 -0.404822 -26.8233
ltibia 17.6873
lfoot -18.5566 -6.14602
ltoes 3.3668
